<svg width="34" height="34" viewBox="0 0 34 34" fill="none" xmlns="http://www.w3.org/2000/svg">
<g clip-path="url(#clip0_17_217)">
<path d="M17 0C13.6377 0 10.3509 0.997032 7.55531 2.86502C4.75968 4.733 2.58075 7.38804 1.29406 10.4944C0.00736586 13.6007 -0.329291 17.0189 0.326658 20.3165C0.982607 23.6142 2.6017 26.6433 4.97919 29.0208C7.35668 31.3983 10.3858 33.0174 13.6835 33.6733C16.9811 34.3293 20.3993 33.9926 23.5056 32.7059C26.612 31.4193 29.267 29.2403 31.135 26.4447C33.003 23.649 34 20.3623 34 17C33.9951 12.4928 32.2025 8.17163 29.0154 4.98457C25.8284 1.79751 21.5072 0.00487486 17 0V0ZM17 31.1667C14.1981 31.1667 11.4591 30.3358 9.12943 28.7791C6.79973 27.2225 4.98396 25.01 3.91171 22.4213C2.83947 19.8327 2.55893 16.9843 3.10555 14.2362C3.65217 11.4882 5.00142 8.96389 6.98266 6.98265C8.96391 5.00141 11.4882 3.65216 14.2362 3.10554C16.9843 2.55892 19.8327 2.83946 22.4214 3.91171C25.01 4.98395 27.2225 6.79972 28.7792 9.12942C30.3358 11.4591 31.1667 14.1981 31.1667 17C31.1625 20.756 29.6687 24.3569 27.0128 27.0128C24.3569 29.6687 20.756 31.1625 17 31.1667Z" fill="#6A9DD2"/>
<path d="M16.9999 8.5C16.6242 8.5 16.2639 8.64926 15.9982 8.91493C15.7325 9.18061 15.5833 9.54094 15.5833 9.91666V16.0437L10.8077 19.0357C10.4883 19.2352 10.2613 19.5534 10.1766 19.9203C10.0918 20.2872 10.1563 20.6728 10.3558 20.9921C10.5553 21.3115 10.8735 21.5385 11.2404 21.6233C11.6073 21.708 11.9928 21.6436 12.3122 21.4441L17.7522 18.0441C17.9577 17.9153 18.1268 17.7359 18.2431 17.5231C18.3594 17.3102 18.4192 17.0711 18.4166 16.8286V9.91666C18.4166 9.54094 18.2673 9.18061 18.0017 8.91493C17.736 8.64926 17.3757 8.5 16.9999 8.5Z" fill="#6A9DD2"/>
</g>
<defs>
<clipPath id="clip0_17_217">
<rect width="34" height="34" fill="white"/>
</clipPath>
</defs>
</svg>
