<svg width="34" height="34" viewBox="0 0 34 34" fill="none" xmlns="http://www.w3.org/2000/svg">
<g clip-path="url(#clip0_17_246)">
<path d="M32.8949 8.13592L28.6294 2.37292C28.1048 1.63956 27.413 1.04177 26.6113 0.629109C25.8097 0.216444 24.9212 0.000784438 24.0195 2.49672e-06H9.98035C9.08308 -0.000839708 8.19844 0.211402 7.39922 0.61926C6.60001 1.02712 5.90907 1.61893 5.38327 2.346L1.04118 8.15009C0.334217 9.14698 -0.0308845 10.346 0.000526928 11.5678C0.0319384 12.7895 0.458173 13.9682 1.21543 14.9274L13.6708 32.3921C14.0677 32.8947 14.5736 33.3006 15.1503 33.5792C15.727 33.8577 16.3595 34.0016 16.9999 34C17.6514 33.9987 18.2938 33.848 18.8779 33.5594C19.4619 33.2708 19.972 32.8521 20.3688 32.3354L32.7249 15.0648C33.5161 14.0916 33.962 12.8833 33.9928 11.6294C34.0236 10.3755 33.6374 9.14682 32.8949 8.13592ZM26.3386 4.03892L30.6141 9.81609C30.6368 9.84725 30.6424 9.88409 30.6651 9.91667H23.7348L21.7118 2.83334H24.0195C24.4742 2.83475 24.922 2.94491 25.3254 3.15464C25.7288 3.36437 26.0762 3.66757 26.3386 4.03892ZM16.9999 27.0838L13.1749 12.75H20.8249L16.9999 27.0838ZM13.2118 9.91667L15.2348 2.83334H18.7651L20.7881 9.91667H13.2118ZM7.67402 4.01909C7.93688 3.65272 8.28311 3.35413 8.68412 3.14795C9.08514 2.94178 9.52944 2.83394 9.98035 2.83334H12.2881L10.2651 9.91667H3.28377C3.3036 9.8855 3.30927 9.84725 3.33193 9.8175L7.67402 4.01909ZM3.46793 13.2104C3.36565 13.0659 3.27786 12.9117 3.20585 12.75H10.2453L14.4868 28.6592L3.46793 13.2104ZM19.5089 28.6733L23.7589 12.75H30.8224C30.7311 12.9615 30.6156 13.1616 30.4781 13.3464L19.5089 28.6733Z" fill="#6A9DD2"/>
</g>
<defs>
<clipPath id="clip0_17_246">
<rect width="34" height="34" fill="white"/>
</clipPath>
</defs>
</svg>
