<svg width="16" height="16" viewBox="0 0 16 16" fill="none" xmlns="http://www.w3.org/2000/svg">
<path d="M16 4.63C15.9811 3.59791 15.5616 2.61362 14.83 1.88533L13.138 0.195333C13.0123 0.0738946 12.8439 0.00669836 12.6691 0.00821731C12.4943 0.00973625 12.3271 0.0798489 12.2035 0.203454C12.0798 0.32706 12.0097 0.494268 12.0082 0.669066C12.0067 0.843864 12.0739 1.01227 12.1953 1.138L13.3333 2.276V4C13.3333 4.35362 13.4738 4.69276 13.7239 4.94281C13.9739 5.19286 14.313 5.33333 14.6667 5.33333V12C14.6667 12.1768 14.5964 12.3464 14.4714 12.4714C14.3464 12.5964 14.1768 12.6667 14 12.6667C13.8232 12.6667 13.6536 12.5964 13.5286 12.4714C13.4036 12.3464 13.3333 12.1768 13.3333 12V11.3333C13.3333 10.8029 13.1226 10.2942 12.7475 9.91912C12.3725 9.54405 11.8638 9.33333 11.3333 9.33333H10.6667V3.33333C10.6656 2.4496 10.3141 1.60237 9.68919 0.97748C9.06429 0.352588 8.21706 0.00105857 7.33333 0L3.33333 0C2.4496 0.00105857 1.60237 0.352588 0.97748 0.97748C0.352588 1.60237 0.00105857 2.4496 0 3.33333L0 12.6667C0.00105857 13.5504 0.352588 14.3976 0.97748 15.0225C1.60237 15.6474 2.4496 15.9989 3.33333 16H7.33333C8.21706 15.9989 9.06429 15.6474 9.68919 15.0225C10.3141 14.3976 10.6656 13.5504 10.6667 12.6667V10.6667H11.3333C11.5101 10.6667 11.6797 10.7369 11.8047 10.8619C11.9298 10.987 12 11.1565 12 11.3333V12C12 12.5304 12.2107 13.0391 12.5858 13.4142C12.9609 13.7893 13.4696 14 14 14C14.5304 14 15.0391 13.7893 15.4142 13.4142C15.7893 13.0391 16 12.5304 16 12C16 12 16 4.642 16 4.63ZM3.33333 1.33333H7.33333C7.86377 1.33333 8.37247 1.54405 8.74755 1.91912C9.12262 2.29419 9.33333 2.8029 9.33333 3.33333V6H1.33333V3.33333C1.33333 2.8029 1.54405 2.29419 1.91912 1.91912C2.29419 1.54405 2.8029 1.33333 3.33333 1.33333ZM9.33333 12.6667C9.33333 13.1971 9.12262 13.7058 8.74755 14.0809C8.37247 14.456 7.86377 14.6667 7.33333 14.6667H3.33333C2.8029 14.6667 2.29419 14.456 1.91912 14.0809C1.54405 13.7058 1.33333 13.1971 1.33333 12.6667V7.33333H9.33333V12.6667Z" fill="#858585"/>
</svg>
