<svg width="34" height="34" viewBox="0 0 34 34" fill="none" xmlns="http://www.w3.org/2000/svg">
<g clip-path="url(#clip0_17_220)">
<path d="M18.4166 1.41661C18.4166 1.04089 18.5659 0.680552 18.8315 0.414875C19.0972 0.149199 19.4576 -5.69643e-05 19.8333 -5.69643e-05C23.5892 0.0040678 27.1902 1.49795 29.8461 4.15382C32.5019 6.80969 33.9958 10.4106 34 14.1666C34 14.5423 33.8507 14.9027 33.585 15.1683C33.3193 15.434 32.959 15.5833 32.5833 15.5833C32.2076 15.5833 31.8472 15.434 31.5815 15.1683C31.3159 14.9027 31.1666 14.5423 31.1666 14.1666C31.1632 11.1619 29.9681 8.28114 27.8434 6.15646C25.7187 4.03178 22.838 2.83665 19.8333 2.83328C19.4576 2.83328 19.0972 2.68402 18.8315 2.41834C18.5659 2.15267 18.4166 1.79233 18.4166 1.41661ZM19.8333 8.49995C21.3362 8.49995 22.7775 9.09697 23.8402 10.1597C24.9029 11.2224 25.4999 12.6637 25.4999 14.1666C25.4999 14.5423 25.6492 14.9027 25.9149 15.1683C26.1806 15.434 26.5409 15.5833 26.9166 15.5833C27.2923 15.5833 27.6527 15.434 27.9184 15.1683C28.184 14.9027 28.3333 14.5423 28.3333 14.1666C28.331 11.913 27.4348 9.75226 25.8412 8.15869C24.2476 6.56512 22.0869 5.66886 19.8333 5.66661C19.4576 5.66661 19.0972 5.81587 18.8315 6.08154C18.5659 6.34722 18.4166 6.70755 18.4166 7.08328C18.4166 7.459 18.5659 7.81934 18.8315 8.08501C19.0972 8.35069 19.4576 8.49995 19.8333 8.49995ZM32.715 23.7135C33.536 24.5368 33.997 25.652 33.997 26.8146C33.997 27.9773 33.536 29.0925 32.715 29.9157L31.4259 31.4018C19.8234 42.5099 -8.41081 14.2828 2.52586 2.64344L4.15502 1.22678C4.9792 0.428736 6.08443 -0.0127374 7.23161 -0.00213261C8.37878 0.00847223 9.47567 0.470303 10.2849 1.28344C10.3289 1.32736 12.9539 4.73728 12.9539 4.73728C13.7329 5.55558 14.1665 6.64259 14.1646 7.77235C14.1628 8.9021 13.7256 9.98769 12.944 10.8034L11.3035 12.8661C12.2114 15.072 13.5462 17.0768 15.2312 18.7653C16.9163 20.4537 18.9184 21.7925 21.1224 22.7049L23.1979 21.0545C24.0137 20.2735 25.0991 19.8368 26.2285 19.8352C27.358 19.8337 28.4446 20.2673 29.2626 21.0459C29.2626 21.0459 32.6711 23.6696 32.715 23.7135ZM30.7657 25.7734C30.7657 25.7734 27.3756 23.1653 27.3317 23.1214C27.0398 22.832 26.6455 22.6696 26.2345 22.6696C25.8235 22.6696 25.4291 22.832 25.1373 23.1214C25.099 23.161 22.2416 25.4376 22.2416 25.4376C22.0491 25.5909 21.8199 25.6914 21.5767 25.7291C21.3335 25.7669 21.0847 25.7406 20.8547 25.653C17.9993 24.5898 15.4058 22.9255 13.2498 20.7726C11.0938 18.6198 9.4256 16.0287 8.35828 13.1749C8.26364 12.9418 8.23279 12.6877 8.26889 12.4388C8.30499 12.1898 8.40674 11.9549 8.56369 11.7583C8.56369 11.7583 10.8403 8.89945 10.8785 8.86261C11.1679 8.57076 11.3303 8.1764 11.3303 7.7654C11.3303 7.35441 11.1679 6.96005 10.8785 6.66819C10.8346 6.62569 8.22653 3.23278 8.22653 3.23278C7.9303 2.96716 7.5437 2.82491 7.14596 2.83519C6.74822 2.84546 6.36948 3.00748 6.08736 3.28803L4.45819 4.70469C-3.53465 14.3154 20.9326 37.4255 29.3547 29.4666L30.6453 27.9791C30.9477 27.699 31.1294 27.3122 31.1518 26.9006C31.1743 26.489 31.0358 26.0848 30.7657 25.7734Z" fill="#6A9DD2"/>
</g>
<defs>
<clipPath id="clip0_17_220">
<rect width="34" height="34" fill="white"/>
</clipPath>
</defs>
</svg>
