<svg width="16" height="16" viewBox="0 0 16 16" fill="none" xmlns="http://www.w3.org/2000/svg">
<g clip-path="url(#clip0_17_111)">
<path d="M15.3334 8.00002C15.3334 8.17683 15.2631 8.3464 15.1381 8.47142C15.0131 8.59645 14.8435 8.66668 14.6667 8.66668H12.7534C12.4089 8.66556 12.0705 8.57596 11.7706 8.40645C11.4707 8.23695 11.2193 7.99323 11.0407 7.69868L10.1287 6.18468L9.13738 8.60002C9.1042 8.68104 9.05538 8.75474 8.99372 8.8169C8.93206 8.87906 8.85876 8.92847 8.778 8.9623C8.69724 8.99613 8.61061 9.01372 8.52306 9.01408C8.4355 9.01443 8.34873 8.99753 8.26771 8.96435C8.18668 8.93117 8.11299 8.88235 8.05083 8.82069C7.98867 8.75903 7.93926 8.68573 7.90543 8.60497C7.8716 8.52422 7.854 8.43759 7.85365 8.35003C7.8533 8.26248 7.87019 8.17571 7.90338 8.09468L9.03671 5.33334H7.74404L6.36804 8.68802C6.30847 8.83299 6.30187 8.99432 6.34942 9.14367C6.39697 9.29302 6.49562 9.42084 6.62804 9.50468L9.68938 11.438C9.78429 11.498 9.86253 11.5809 9.91683 11.6792C9.97114 11.7774 9.99976 11.8878 10 12V15.3334C10 15.5102 9.9298 15.6797 9.80478 15.8048C9.67976 15.9298 9.51019 16 9.33338 16C9.15657 16 8.987 15.9298 8.86197 15.8048C8.73695 15.6797 8.66671 15.5102 8.66671 15.3334V12.3674L5.91604 10.634C5.51784 10.3828 5.22103 9.99917 5.07786 9.55065C4.9347 9.10213 4.95435 8.61747 5.13337 8.18202L6.30271 5.33334H4.82404C4.70024 5.33289 4.57879 5.36712 4.47345 5.43216C4.3681 5.4972 4.28309 5.59045 4.22804 5.70134L3.26337 7.63135C3.22424 7.7097 3.17006 7.77958 3.10392 7.837C3.03778 7.89441 2.96097 7.93824 2.8779 7.96597C2.79482 7.99371 2.70709 8.00481 2.61973 7.99864C2.53236 7.99247 2.44706 7.96915 2.36871 7.93002C2.29035 7.89088 2.22047 7.8367 2.16306 7.77056C2.10564 7.70442 2.06182 7.62761 2.03408 7.54454C2.00635 7.46146 1.99525 7.37373 2.00142 7.28637C2.00759 7.199 2.03091 7.1137 2.07004 7.03535L3.03537 5.10201C3.20098 4.76971 3.45627 4.49039 3.77237 4.29563C4.08847 4.10088 4.45277 3.99848 4.82404 4.00001H9.23938C9.58414 4.00103 9.92285 4.09066 10.223 4.26029C10.5231 4.42992 10.7747 4.67385 10.9534 4.96868L12.1827 7.01068C12.2423 7.1088 12.326 7.19 12.4259 7.24649C12.5258 7.30299 12.6386 7.33289 12.7534 7.33335H14.6667C14.8435 7.33335 15.0131 7.40359 15.1381 7.52861C15.2631 7.65363 15.3334 7.8232 15.3334 8.00002ZM5.25004 11.2094C5.16875 11.1768 5.08185 11.1606 4.99431 11.1617C4.90676 11.1627 4.82027 11.181 4.7398 11.2155C4.65932 11.25 4.58642 11.3 4.52526 11.3626C4.46411 11.4253 4.41589 11.4994 4.38337 11.5807C4.33437 11.7048 4.24903 11.8113 4.13852 11.8861C4.02802 11.9609 3.89749 12.0006 3.76404 12H2.00004C1.82323 12 1.65366 12.0703 1.52864 12.1953C1.40361 12.3203 1.33337 12.4899 1.33337 12.6667C1.33337 12.8435 1.40361 13.0131 1.52864 13.1381C1.65366 13.2631 1.82323 13.3334 2.00004 13.3334H3.76404C4.1641 13.3346 4.55527 13.2153 4.88656 12.9911C5.21785 12.7668 5.47391 12.4479 5.62138 12.076C5.6539 11.9947 5.6701 11.9078 5.66905 11.8203C5.66799 11.7327 5.6497 11.6463 5.61522 11.5658C5.58074 11.4853 5.53074 11.4124 5.46808 11.3512C5.40542 11.2901 5.33133 11.2419 5.25004 11.2094ZM10 3.33334C10.3297 3.33334 10.6519 3.23559 10.926 3.05246C11.2001 2.86932 11.4137 2.60902 11.5398 2.30448C11.666 1.99993 11.699 1.66482 11.6347 1.34152C11.5704 1.01822 11.4116 0.721245 11.1786 0.488157C10.9455 0.255069 10.6485 0.0963342 10.3252 0.0320253C10.0019 -0.0322835 9.66678 0.000722141 9.36224 0.126868C9.05769 0.253015 8.7974 0.466636 8.61426 0.740718C8.43112 1.0148 8.33338 1.33703 8.33338 1.66667C8.33338 2.1087 8.50897 2.53262 8.82153 2.84518C9.13409 3.15774 9.55802 3.33334 10 3.33334Z" fill="#858585"/>
</g>
<defs>
<clipPath id="clip0_17_111">
<rect width="16" height="16" fill="white"/>
</clipPath>
</defs>
</svg>
