<svg width="34" height="34" viewBox="0 0 34 34" fill="none" xmlns="http://www.w3.org/2000/svg">
<g clip-path="url(#clip0_17_248)">
<path d="M26.3231 3.03164L17.4477 0.0722249C17.1571 -0.0245632 16.843 -0.0245632 16.5524 0.0722249L7.67696 3.03164C6.26582 3.50039 5.0383 4.40192 4.16879 5.60815C3.29928 6.81437 2.83201 8.26394 2.83338 9.75089V17C2.83338 27.7142 15.8667 33.6316 16.4249 33.8781C16.606 33.9586 16.8019 34.0001 17 34.0001C17.1982 34.0001 17.3941 33.9586 17.5752 33.8781C18.1334 33.6316 31.1667 27.7142 31.1667 17V9.75089C31.1681 8.26394 30.7008 6.81437 29.8313 5.60815C28.9618 4.40192 27.7343 3.50039 26.3231 3.03164ZM28.3334 17C28.3334 24.7279 19.3815 29.7967 17 31.0094C14.6158 29.801 5.66671 24.7477 5.66671 17V9.75089C5.66679 8.85878 5.9476 7.98932 6.46934 7.26569C6.99109 6.54206 7.72731 6.00096 8.57371 5.71906L17 2.90981L25.4264 5.71906C26.2728 6.00096 27.009 6.54206 27.5307 7.26569C28.0525 7.98932 28.3333 8.85878 28.3334 9.75089V17Z" fill="#6A9DD2"/>
<path d="M21.675 11.7583L15.742 17.7083L12.563 14.3933C12.4354 14.2538 12.2812 14.1413 12.1095 14.0623C11.9377 13.9833 11.7519 13.9395 11.563 13.9335C11.374 13.9274 11.1858 13.9593 11.0093 14.0271C10.8329 14.0949 10.6718 14.1974 10.5356 14.3284C10.3993 14.4594 10.2907 14.6164 10.216 14.7901C10.1414 14.9638 10.1023 15.1506 10.101 15.3397C10.0997 15.5287 10.1362 15.7161 10.2085 15.8908C10.2807 16.0654 10.3872 16.2239 10.5216 16.3568L13.7884 19.7568C14.032 20.02 14.3265 20.231 14.654 20.3771C14.9815 20.5232 15.3353 20.6013 15.6938 20.6068H15.7406C16.092 20.608 16.4401 20.5393 16.7648 20.4048C17.0895 20.2704 17.3842 20.0727 17.6318 19.8234L23.6838 13.7714C23.816 13.6395 23.9209 13.4829 23.9926 13.3104C24.0642 13.138 24.1012 12.9531 24.1014 12.7664C24.1016 12.5796 24.065 12.3947 23.9937 12.2221C23.9224 12.0495 23.8179 11.8926 23.6859 11.7604C23.554 11.6283 23.3974 11.5234 23.225 11.4517C23.0525 11.3801 22.8676 11.3431 22.6809 11.3429C22.4942 11.3427 22.3092 11.3793 22.1366 11.4506C21.964 11.5218 21.8072 11.6264 21.675 11.7583Z" fill="#6A9DD2"/>
</g>
<defs>
<clipPath id="clip0_17_248">
<rect width="34" height="34" fill="white"/>
</clipPath>
</defs>
</svg>
