<svg width="16" height="16" viewBox="0 0 16 16" fill="none" xmlns="http://www.w3.org/2000/svg">
<g clip-path="url(#clip0_17_115)">
<path d="M15.174 9.31402L13.544 9.74469C13.3059 9.80822 13.0833 9.91985 12.89 10.0727L11.1453 9.05802C11.3907 8.37403 11.3907 7.62602 11.1453 6.94202L12.89 5.92736C13.0833 6.0802 13.3059 6.19182 13.544 6.25536C13.544 6.25536 15.2886 6.70802 15.344 6.70802C15.5039 6.70537 15.6576 6.6453 15.7769 6.53876C15.8962 6.43222 15.9733 6.28633 15.994 6.1277C16.0147 5.96908 15.9776 5.8083 15.8896 5.67471C15.8016 5.54112 15.6685 5.44363 15.5146 5.40002L13.8853 4.96869C13.7633 4.9363 13.6591 4.85683 13.5956 4.74772C13.5321 4.63861 13.5145 4.50877 13.5466 4.38669L13.978 2.75736C14.0004 2.6727 14.0059 2.58445 13.9942 2.49766C13.9825 2.41087 13.9538 2.32723 13.9098 2.25152C13.8658 2.17581 13.8073 2.10951 13.7377 2.05641C13.668 2.0033 13.5886 1.96444 13.504 1.94202C13.4193 1.91961 13.3311 1.91409 13.2443 1.92578C13.1575 1.93748 13.0738 1.96615 12.9981 2.01016C12.9224 2.05418 12.8561 2.11267 12.803 2.18231C12.7499 2.25195 12.711 2.33136 12.6886 2.41602L12.258 4.04536C12.1946 4.28451 12.1814 4.5342 12.2193 4.77869L10.4753 5.78936C10.0022 5.25136 9.3677 4.8809 8.66663 4.73336V2.73336C8.89629 2.64377 9.10489 2.50757 9.2793 2.33336L10.4713 1.14136C10.5967 1.01635 10.6674 0.846631 10.6677 0.669535C10.668 0.492438 10.598 0.32247 10.473 0.197023C10.348 0.0715752 10.1782 0.000923955 10.0011 0.000611393C9.82405 0.000298831 9.65408 0.0703505 9.52863 0.195356L8.33663 1.38736C8.24701 1.47603 8.12603 1.52576 7.99996 1.52576C7.87389 1.52576 7.75291 1.47603 7.6633 1.38736L6.4713 0.195356C6.34556 0.0739172 6.17716 0.00672092 6.00236 0.00823986C5.82757 0.00975881 5.66036 0.0798714 5.53675 0.203477C5.41315 0.327082 5.34303 0.494291 5.34152 0.669089C5.34 0.843886 5.40719 1.01229 5.52863 1.13802L6.72063 2.33336C6.89504 2.50757 7.10364 2.64377 7.3333 2.73336V4.73336C6.63223 4.8809 5.99773 5.25136 5.52463 5.78936L3.78063 4.77469C3.81852 4.5302 3.80536 4.28051 3.74196 4.04136L3.3113 2.41336C3.28889 2.3287 3.25002 2.24928 3.19691 2.17964C3.14381 2.11001 3.07751 2.05151 3.0018 2.0075C2.92609 1.96348 2.84245 1.93481 2.75566 1.92312C2.66887 1.91143 2.58062 1.91694 2.49597 1.93936C2.41131 1.96177 2.33189 2.00064 2.26225 2.05374C2.19262 2.10684 2.13412 2.17314 2.0901 2.24885C2.04609 2.32457 2.01742 2.4082 2.00573 2.495C1.99403 2.58179 1.99955 2.67003 2.02197 2.75469L2.4533 4.38402C2.48542 4.50611 2.4678 4.63594 2.40431 4.74505C2.34082 4.85416 2.23664 4.93363 2.11463 4.96602L0.485299 5.40002C0.329289 5.44177 0.193738 5.53873 0.10383 5.67289C0.0139221 5.80705 -0.0242295 5.96928 -0.00353641 6.12945C0.0171567 6.28962 0.0952874 6.43683 0.21634 6.54373C0.337392 6.65064 0.493135 6.70996 0.654632 6.71069C0.711299 6.71069 2.45463 6.25802 2.45463 6.25802C2.69274 6.19449 2.91531 6.08286 3.10863 5.93002L4.8533 6.94469C4.60793 7.62868 4.60793 8.3767 4.8533 9.06069L3.10996 10.0727C2.91665 9.91985 2.69407 9.80822 2.45597 9.74469L0.825965 9.31402C0.659972 9.28173 0.487912 9.31373 0.344624 9.40354C0.201337 9.49334 0.0975318 9.63424 0.054229 9.79771C0.0109262 9.96118 0.031362 10.135 0.111398 10.284C0.191434 10.4329 0.325089 10.5459 0.485299 10.6L2.11463 11.0314C2.23664 11.0638 2.34082 11.1432 2.40431 11.2523C2.4678 11.3614 2.48542 11.4913 2.4533 11.6134L2.02197 13.2427C1.99955 13.3274 1.99403 13.4156 2.00573 13.5024C2.01742 13.5892 2.04609 13.6728 2.0901 13.7485C2.13412 13.8242 2.19262 13.8905 2.26225 13.9436C2.33189 13.9967 2.41131 14.0356 2.49597 14.058C2.58062 14.0804 2.66887 14.086 2.75566 14.0743C2.84245 14.0626 2.92609 14.0339 3.0018 13.9899C3.07751 13.9459 3.14381 13.8874 3.19691 13.8177C3.25002 13.7481 3.28889 13.6687 3.3113 13.584L3.74196 11.9547C3.80536 11.7155 3.81852 11.4659 3.78063 11.2214L5.52463 10.2067C5.99715 10.7462 6.63171 11.1181 7.3333 11.2667V13.2667C7.10377 13.3565 6.89521 13.4927 6.72063 13.6667L5.52863 14.862C5.40719 14.9878 5.34 15.1562 5.34152 15.331C5.34303 15.5058 5.41315 15.673 5.53675 15.7966C5.66036 15.9202 5.82757 15.9903 6.00236 15.9918C6.17716 15.9933 6.34556 15.9261 6.4713 15.8047L7.66663 14.6127C7.75625 14.524 7.87723 14.4743 8.0033 14.4743C8.12937 14.4743 8.25035 14.524 8.33996 14.6127L9.53196 15.8047C9.6577 15.9261 9.8261 15.9933 10.0009 15.9918C10.1757 15.9903 10.3429 15.9202 10.4665 15.7966C10.5901 15.673 10.6602 15.5058 10.6617 15.331C10.6633 15.1562 10.5961 14.9878 10.4746 14.862L9.28263 13.67C9.10739 13.4944 8.89764 13.3571 8.66663 13.2667V11.2667C9.36761 11.1193 10.0021 10.7491 10.4753 10.2114L12.2193 11.226C12.1814 11.4705 12.1946 11.7202 12.258 11.9594L12.6886 13.5887C12.7339 13.7597 12.8452 13.9057 12.9981 13.9946C13.151 14.0834 13.333 14.108 13.504 14.0627C13.6749 14.0174 13.8209 13.9061 13.9098 13.7532C13.9987 13.6003 14.0232 13.4183 13.978 13.2474L13.5466 11.618C13.5145 11.4959 13.5321 11.3661 13.5956 11.257C13.6591 11.1479 13.7633 11.0684 13.8853 11.036L15.5146 10.6047C15.6011 10.5841 15.6826 10.5464 15.7543 10.4938C15.826 10.4412 15.8865 10.3748 15.9321 10.2985C15.9778 10.2222 16.0077 10.1375 16.0202 10.0495C16.0326 9.96142 16.0273 9.87177 16.0046 9.78581C15.9819 9.69984 15.9422 9.61929 15.8878 9.5489C15.8335 9.4785 15.7656 9.41968 15.6883 9.37591C15.6109 9.33213 15.5255 9.30428 15.4372 9.294C15.3488 9.28372 15.2593 9.2912 15.174 9.31602V9.31402ZM7.99996 10C7.46953 10 6.96082 9.78931 6.58575 9.41424C6.21068 9.03917 5.99996 8.53046 5.99996 8.00002C5.99996 7.46959 6.21068 6.96088 6.58575 6.58581C6.96082 6.21074 7.46953 6.00002 7.99996 6.00002C8.5304 6.00002 9.0391 6.21074 9.41418 6.58581C9.78925 6.96088 9.99996 7.46959 9.99996 8.00002C9.99996 8.53046 9.78925 9.03917 9.41418 9.41424C9.0391 9.78931 8.5304 10 7.99996 10Z" fill="#858585"/>
</g>
<defs>
<clipPath id="clip0_17_115">
<rect width="16" height="16" fill="white"/>
</clipPath>
</defs>
</svg>
